<?xml version="1.0" standalone="no"?>
<svg viewBox="0 0 200 200" xmlns="http://www.w3.org/2000/svg">
  <path fill="#FF0066" d="M10.9,-27.5C13.3,-17.5,13.9,-12.9,15.1,-9.3C16.2,-5.6,17.9,-2.8,27.6,5.6C37.4,14,55.1,28.1,53.8,31.4C52.5,34.8,32.1,27.5,19.9,30.7C7.8,33.8,3.9,47.4,-5.4,56.8C-14.8,66.3,-29.6,71.5,-42.4,68.8C-55.3,66.1,-66.3,55.4,-69.4,42.6C-72.4,29.8,-67.5,14.9,-66.4,0.7C-65.3,-13.6,-67.9,-27.2,-65.6,-41.2C-63.3,-55.2,-55.9,-69.7,-44.2,-74.4C-32.4,-79.1,-16.2,-74,-6,-63.6C4.2,-53.2,8.5,-37.6,10.9,-27.5Z" transform="translate(100 100)" />
</svg>
