<?xml version="1.0" standalone="no"?>
<!DOCTYPE svg PUBLIC "-//W3C//DTD SVG 20010904//EN"
 "http://www.w3.org/TR/2001/REC-SVG-20010904/DTD/svg10.dtd">
<svg version="1.0" xmlns="http://www.w3.org/2000/svg"
 width="32.000000pt" height="32.000000pt" viewBox="0 0 32.000000 32.000000"
 preserveAspectRatio="xMidYMid meet">
<metadata>
Created by potrace 1.10, written by Peter Selinger 2001-2011
</metadata>
<g transform="translate(0.000000,32.000000) scale(0.100000,-0.100000)"
fill="#3a0077" stroke="none">
<path d="M10 305 c-8 -9 -8 -15 -2 -15 12 0 26 19 19 26 -2 2 -10 -2 -17 -11z"/>
<path d="M290 312 c0 -5 7 -15 15 -22 8 -7 15 -8 15 -2 0 5 -7 15 -15 22 -8 7
-15 8 -15 2z"/>
<path d="M178 266 c-16 -9 -30 -11 -33 -5 -10 16 -91 11 -106 -7 -11 -14 -10
-18 5 -30 11 -7 23 -11 27 -8 5 3 9 -7 9 -21 0 -19 -6 -29 -22 -33 -20 -5 -21
-6 -3 -12 17 -6 15 -9 -13 -25 -21 -13 -32 -27 -32 -42 0 -45 77 -56 100 -13
6 10 16 18 23 16 6 -1 9 -1 5 1 -20 12 -4 21 26 16 19 -3 36 -1 40 6 5 7 12 7
26 -1 27 -17 74 1 78 30 2 15 -3 25 -18 30 -19 7 -20 10 -7 20 21 18 7 64 -24
79 -31 16 -48 16 -81 -1z m-44 -15 c3 -5 2 -31 -3 -57 -10 -55 -8 -62 14 -44
10 8 15 9 15 2 0 -6 -9 -16 -20 -22 -11 -6 -27 -24 -35 -41 -14 -25 -21 -30
-48 -27 -43 4 -47 31 -7 48 19 8 32 22 36 39 3 14 10 39 15 55 12 40 13 39
-28 32 -35 -6 -37 -5 -19 9 22 16 72 20 80 6z m134 -3 c16 -16 15 -38 -3 -58
-8 -9 -12 -25 -8 -38 5 -22 7 -22 24 -6 17 15 19 16 19 1 0 -20 -36 -41 -56
-33 -8 3 -14 16 -14 30 0 14 -5 28 -10 31 -6 4 -8 11 -4 16 3 5 10 7 15 4 13
-9 24 24 11 37 -6 6 -25 8 -47 4 -30 -6 -35 -10 -30 -27 4 -11 2 -19 -4 -19
-20 0 -11 39 11 54 27 19 79 21 96 4z m-53 -29 c-4 -5 -10 -31 -13 -56 -8 -51
-32 -72 -32 -29 0 34 26 96 40 96 6 0 8 -5 5 -11z"/>
<path d="M52 93 c-6 -2 -10 -9 -6 -14 8 -14 21 -11 28 6 6 15 1 17 -22 8z"/>
<path d="M10 20 c0 -5 5 -10 11 -10 5 0 7 5 4 10 -3 6 -8 10 -11 10 -2 0 -4
-4 -4 -10z"/>
<path d="M295 19 c-11 -17 1 -21 15 -4 8 9 8 15 2 15 -6 0 -14 -5 -17 -11z"/>
</g>
</svg>
